<?xml version="1.0" encoding="UTF-8"?>
<svg xmlns="http://www.w3.org/2000/svg" xmlns:xlink="http://www.w3.org/1999/xlink" width="28px" height="28px" viewBox="0 0 28 28" version="1.1">
<g id="surface1">
<path style=" stroke:none;fill-rule:evenodd;fill:rgb(26.666668%,37.64706%,62.7451%);fill-opacity:1;" d="M 14.957031 28 L 1.546875 28 C 0.691406 28 0 27.308594 0 26.453125 L 0 1.546875 C 0 0.691406 0.691406 0 1.546875 0 L 26.453125 0 C 27.308594 0 28 0.691406 28 1.546875 L 28 26.453125 C 28 27.308594 27.308594 28 26.453125 28 L 19.320312 28 L 19.320312 17.15625 L 22.960938 17.15625 L 23.503906 12.929688 L 19.320312 12.929688 L 19.320312 10.234375 C 19.320312 9.007812 19.660156 8.175781 21.414062 8.175781 L 23.652344 8.175781 L 23.652344 4.394531 C 23.265625 4.34375 21.9375 4.230469 20.390625 4.230469 C 17.164062 4.230469 14.957031 6.199219 14.957031 9.816406 L 14.957031 12.929688 L 11.308594 12.929688 L 11.308594 17.15625 L 14.957031 17.15625 Z M 14.957031 28 "/>
</g>
</svg>
