<?xml version="1.0" encoding="UTF-8"?>
<svg xmlns="http://www.w3.org/2000/svg" xmlns:xlink="http://www.w3.org/1999/xlink" width="28px" height="28px" viewBox="0 0 28 28" version="1.1">
<g id="surface1">
<path style=" stroke:none;fill-rule:nonzero;fill:rgb(25.098041%,70.19608%,87.843138%);fill-opacity:1;" d="M 14 0 C 6.269531 0 0 6.269531 0 14 C 0 21.730469 6.269531 28 14 28 C 21.730469 28 28 21.730469 28 14 C 28 6.269531 21.730469 0 14 0 Z M 14 0 "/>
<path style=" stroke:none;fill-rule:nonzero;fill:rgb(100%,100%,100%);fill-opacity:1;" d="M 20.8125 8.054688 L 18.3125 20.660156 C 18.3125 20.660156 17.960938 21.535156 17 21.117188 L 11.230469 16.691406 L 9.132812 15.675781 L 5.597656 14.488281 C 5.597656 14.488281 5.058594 14.296875 5.003906 13.875 C 4.953125 13.457031 5.617188 13.230469 5.617188 13.230469 L 19.65625 7.722656 C 19.65625 7.722656 20.8125 7.214844 20.8125 8.054688 "/>
<path style=" stroke:none;fill-rule:nonzero;fill:rgb(82.352942%,89.803922%,94.509804%);fill-opacity:1;" d="M 10.785156 20.519531 C 10.785156 20.519531 10.617188 20.503906 10.40625 19.839844 C 10.199219 19.175781 9.132812 15.675781 9.132812 15.675781 L 17.613281 10.292969 C 17.613281 10.292969 18.101562 9.996094 18.085938 10.292969 C 18.085938 10.292969 18.171875 10.34375 17.910156 10.589844 C 17.648438 10.832031 11.246094 16.585938 11.246094 16.585938 "/>
<path style=" stroke:none;fill-rule:nonzero;fill:rgb(70.980394%,81.176472%,89.411765%);fill-opacity:1;" d="M 13.441406 18.386719 L 11.160156 20.46875 C 11.160156 20.46875 10.980469 20.605469 10.785156 20.519531 L 11.222656 16.652344 "/>
</g>
</svg>
