<svg width="47" height="52" viewBox="0 0 47 52" fill="none" xmlns="http://www.w3.org/2000/svg">
<g id="&#208;&#183;&#208;&#189;&#208;&#176;&#208;&#186;">
<g id="Vector">
<path fill-rule="evenodd" clip-rule="evenodd" d="M26.9058 42.5L10.2887 33.8917L10.5764 33.3522L27.1935 41.9605L26.9058 42.5Z" fill="white"/>
<path fill-rule="evenodd" clip-rule="evenodd" d="M36.7832 34.0652V16.1533H37.4015V34.0652H36.7832Z" fill="white"/>
<path fill-rule="evenodd" clip-rule="evenodd" d="M36.474 22.9307L27.1302 28.3991L26.8634 27.8377L36.1584 22.4067L36.474 22.9307Z" fill="white"/>
<path fill-rule="evenodd" clip-rule="evenodd" d="M35.5379 15.5626L26.3569 10.331L14.8252 17.0268L23.8061 22.1771L35.5379 15.5626ZM26.354 9.62539L13.6014 17.0301L23.8035 22.8806L36.7832 15.5626L36.247 15.2627L26.354 9.62539Z" fill="white"/>
<path d="M10.3868 33.9267L10.1234 33.7743L9.96878 22.1189L2.23989 17.6243M10.3868 33.9267L20.5849 28.1296M10.3868 33.9267L20.5849 39.225M21.0984 27.8377V39.4115L20.5849 39.225M21.0984 27.8377L2.23989 17.0301V13.9676L2.70363 13.6629L23.8808 1.70271L44.7286 14.12V21.5078H45.4006L45.4253 13.7106L23.8813 1L2.37806 13.1444L1.62158 13.6415V38.7831L24.3453 50.9999L26.6632 49.7471V49.7591L27.1178 49.5014L27.3588 49.3711V49.3648L45.3458 38.8506L45.3719 31.3571H44.7286V38.4975L27.2815 48.7055V42.535L40.0334 35.4537L26.8634 27.8377M21.0984 27.8377L20.5849 28.1296M26.8634 27.8377L26.7405 27.9085V49.0103L24.3445 50.3053L2.23989 38.4213V17.6243M26.8634 27.8377L27.1302 28.3991L36.474 22.9307L36.1584 22.4067L26.8634 27.8377ZM2.23989 17.6243V17.3957M20.5849 28.1296V39.225M36.247 15.2627L26.354 9.62539L13.6014 17.0301L23.8035 22.8806L36.7832 15.5626L36.247 15.2627ZM19.8645 27.8356L10.7318 33.027L10.5925 22.5218L19.8645 27.8356ZM38.8269 35.4708L27.3588 41.7721V28.8234L38.8269 35.4708ZM26.3569 10.331L35.5379 15.5626L23.8061 22.1771L14.8252 17.0268L26.3569 10.331ZM10.2887 33.8917L26.9058 42.5L27.1935 41.9605L10.5764 33.3522L10.2887 33.8917ZM36.7832 16.1533V34.0652H37.4015V16.1533H36.7832Z" stroke="white" stroke-width="1.5"/>
</g>
</g>
</svg>
