<svg width="78" height="41" viewBox="0 0 78 41" fill="none" xmlns="http://www.w3.org/2000/svg">
<g id="typo">
<path d="M11.5064 14.5227V16.8353H0.135132V0.25H11.2962V2.5626H2.75028V7.28124H10.1521V9.45369H2.75028V14.5227H11.5064Z" fill="white"/>
<path d="M18.1768 17.0689C17.1962 17.0689 16.2155 16.9132 15.2348 16.6017C14.2697 16.2747 13.4369 15.8153 12.7364 15.2235L13.7638 13.5883C14.4954 14.1178 15.2192 14.5227 15.9353 14.803C16.6513 15.0678 17.383 15.2002 18.1301 15.2002C18.8929 15.2002 19.4922 15.0522 19.9281 14.7563C20.3795 14.4604 20.6052 14.04 20.6052 13.4949C20.6052 12.981 20.3561 12.6072 19.858 12.3736C19.3599 12.14 18.5816 11.8831 17.5231 11.6028C16.7603 11.4003 16.1065 11.2057 15.5617 11.0188C15.0169 10.8319 14.5732 10.6139 14.2308 10.3647C13.8883 10.1155 13.6393 9.82744 13.4836 9.50041C13.3279 9.17337 13.2501 8.77626 13.2501 8.30907C13.2501 7.68614 13.3668 7.1333 13.6003 6.65053C13.8494 6.16777 14.1841 5.76287 14.6044 5.43583C15.0402 5.09323 15.5461 4.83627 16.1221 4.66497C16.698 4.49366 17.3207 4.40801 17.99 4.40801C18.9085 4.40801 19.7646 4.54817 20.5585 4.82848C21.3524 5.1088 22.0607 5.5137 22.6833 6.04318L21.5859 7.58492C20.4495 6.68168 19.2431 6.23006 17.9667 6.23006C17.3129 6.23006 16.7603 6.37022 16.3089 6.65053C15.873 6.91528 15.6551 7.34353 15.6551 7.93531C15.6551 8.18448 15.7018 8.39472 15.7952 8.56602C15.8886 8.73732 16.0365 8.88527 16.2388 9.00985C16.4568 9.13444 16.7292 9.25124 17.0561 9.36025C17.3985 9.45369 17.8188 9.5627 18.3169 9.68728C19.142 9.88973 19.8502 10.0922 20.4417 10.2946C21.0488 10.4971 21.547 10.7385 21.9361 11.0188C22.3253 11.2835 22.6133 11.6028 22.8001 11.9765C22.9869 12.3347 23.0802 12.7708 23.0802 13.2847C23.0802 14.4526 22.6366 15.3792 21.7493 16.0645C20.8776 16.7341 19.6868 17.0689 18.1768 17.0689Z" fill="white"/>
<path d="M24.5301 10.7151C24.5301 9.85859 24.678 9.04879 24.9737 8.28571C25.2695 7.52263 25.6898 6.85298 26.2346 6.27678C26.795 5.70058 27.4644 5.24896 28.2427 4.92192C29.021 4.57931 29.8927 4.40801 30.8578 4.40801C32.1187 4.40801 33.2006 4.68833 34.1034 5.24896C35.0218 5.79401 35.7068 6.52595 36.1582 7.44476L33.6598 8.23899C33.364 7.72508 32.9671 7.32796 32.4689 7.04765C31.9708 6.75176 31.4182 6.60381 30.8111 6.60381C30.2974 6.60381 29.8149 6.70504 29.3635 6.90749C28.9276 7.10994 28.5462 7.39804 28.2193 7.77179C27.8924 8.12998 27.6356 8.55824 27.4488 9.05657C27.262 9.55491 27.1686 10.1078 27.1686 10.7151C27.1686 11.3069 27.262 11.8597 27.4488 12.3736C27.6512 12.872 27.9158 13.308 28.2427 13.6818C28.5851 14.0555 28.9743 14.3514 29.4102 14.5694C29.8616 14.7719 30.3364 14.8731 30.8345 14.8731C31.1458 14.8731 31.4571 14.8342 31.7685 14.7563C32.0798 14.6629 32.36 14.5383 32.609 14.3826C32.8737 14.2268 33.0994 14.0477 33.2862 13.8453C33.4885 13.6428 33.6364 13.4248 33.7298 13.1912L36.2516 13.9387C35.8469 14.8575 35.1697 15.6128 34.2202 16.2046C33.2706 16.7808 32.1498 17.0689 30.8578 17.0689C29.9083 17.0689 29.0444 16.8976 28.266 16.555C27.4877 16.2124 26.8184 15.753 26.258 15.1768C25.7132 14.585 25.2851 13.9076 24.9737 13.1445C24.678 12.3814 24.5301 11.5716 24.5301 10.7151Z" fill="white"/>
<path d="M41.6125 17.0689C41.021 17.0689 40.4684 16.9755 39.9547 16.7886C39.4565 16.5862 39.0207 16.3136 38.6471 15.971C38.2891 15.6284 38.0011 15.2235 37.7832 14.7563C37.5808 14.2891 37.4796 13.783 37.4796 13.2379C37.4796 12.6617 37.6041 12.14 37.8532 11.6728C38.1023 11.2057 38.4525 10.8008 38.9039 10.4582C39.3709 10.1155 39.9157 9.8508 40.5384 9.66392C41.1766 9.47705 41.8771 9.38361 42.6399 9.38361C43.2158 9.38361 43.784 9.43811 44.3444 9.54712C44.9048 9.64056 45.4107 9.77293 45.8621 9.94424V9.10329C45.8621 8.20005 45.6053 7.49927 45.0916 7.00093C44.5779 6.48702 43.8385 6.23006 42.8734 6.23006C42.2196 6.23006 41.5736 6.35464 40.9353 6.60381C40.3127 6.83741 39.6667 7.18002 38.9973 7.63164L38.2034 5.99646C39.7757 4.9375 41.4101 4.40801 43.1069 4.40801C44.788 4.40801 46.0956 4.83627 47.0296 5.69279C47.9636 6.54931 48.4305 7.77958 48.4305 9.38361V13.7986C48.4305 14.3436 48.6563 14.6239 49.1077 14.6395V16.8353C48.8586 16.882 48.6407 16.9132 48.4539 16.9288C48.2827 16.9443 48.1114 16.9521 47.9402 16.9521C47.4421 16.9521 47.0529 16.8275 46.7727 16.5784C46.5081 16.3292 46.3447 16.01 46.2824 15.6206L46.2123 14.8498C45.6675 15.5661 44.9904 16.119 44.1809 16.5083C43.3871 16.882 42.5309 17.0689 41.6125 17.0689ZM42.313 15.1768C42.9356 15.1768 43.5194 15.0678 44.0642 14.8498C44.6246 14.6162 45.0604 14.2969 45.3718 13.892C45.6987 13.6117 45.8621 13.3158 45.8621 13.0043V11.3925C45.4262 11.2212 44.9592 11.0889 44.4611 10.9954C43.9786 10.902 43.5038 10.8553 43.0368 10.8553C42.1184 10.8553 41.3634 11.0577 40.7719 11.4626C40.1959 11.8519 39.908 12.3736 39.908 13.0277C39.908 13.6351 40.1337 14.149 40.5851 14.5694C41.0365 14.9743 41.6125 15.1768 42.313 15.1768Z" fill="white"/>
<path d="M58.4814 17.0689C57.5008 17.0689 56.6368 16.8353 55.8896 16.3681C55.1424 15.9009 54.5509 15.2936 54.1151 14.5461V21.8109H51.5466V4.61825H53.8115V6.81405C54.2785 6.08212 54.8778 5.49813 55.6094 5.06208C56.3566 4.62603 57.1972 4.40801 58.1312 4.40801C58.9718 4.40801 59.7423 4.57931 60.4428 4.92192C61.1433 5.26453 61.7504 5.72394 62.2641 6.30014C62.7777 6.87634 63.1747 7.54599 63.4549 8.30907C63.7506 9.07215 63.8985 9.87416 63.8985 10.7151C63.8985 11.6028 63.7662 12.4359 63.5016 13.2146C63.2369 13.9777 62.8634 14.6473 62.3808 15.2235C61.8982 15.7841 61.3223 16.2358 60.6529 16.5784C59.9991 16.9054 59.2753 17.0689 58.4814 17.0689ZM57.6408 14.8731C58.1857 14.8731 58.676 14.7563 59.1119 14.5227C59.5633 14.2891 59.9447 13.9777 60.256 13.5883C60.5829 13.199 60.832 12.7552 61.0032 12.2568C61.1744 11.7585 61.26 11.2446 61.26 10.7151C61.26 10.1545 61.1588 9.62499 60.9565 9.12665C60.7697 8.62831 60.5051 8.19227 60.1626 7.81851C59.8357 7.44476 59.4388 7.14887 58.9718 6.93085C58.5048 6.71283 57.9989 6.60381 57.454 6.60381C57.1272 6.60381 56.7847 6.66611 56.4267 6.79069C56.0686 6.91528 55.734 7.08658 55.4226 7.3046C55.1113 7.52262 54.8389 7.77958 54.6054 8.07547C54.3719 8.35578 54.2085 8.66725 54.1151 9.00985V12.2101C54.2707 12.5839 54.4731 12.9343 54.7222 13.2613C54.9712 13.5883 55.2436 13.8687 55.5394 14.1022C55.8507 14.3358 56.1854 14.5227 56.5434 14.6629C56.9014 14.803 57.2673 14.8731 57.6408 14.8731Z" fill="white"/>
<path d="M71.7423 17.0689C70.7928 17.0689 69.9288 16.9054 69.1505 16.5784C68.3722 16.2358 67.7029 15.7764 67.1425 15.2002C66.5976 14.6239 66.1696 13.9543 65.8582 13.1912C65.5625 12.4281 65.4146 11.6183 65.4146 10.7618C65.4146 9.90531 65.5625 9.09551 65.8582 8.33243C66.1696 7.55377 66.5976 6.87634 67.1425 6.30014C67.7029 5.70836 68.3722 5.24896 69.1505 4.92192C69.9288 4.57931 70.8006 4.40801 71.7657 4.40801C72.7152 4.40801 73.5714 4.57931 74.3341 4.92192C75.1124 5.26453 75.774 5.72394 76.3188 6.30014C76.8637 6.86077 77.2762 7.52263 77.5564 8.28571C77.8521 9.03321 78 9.81965 78 10.645C78 10.8319 77.9922 11.011 77.9766 11.1823C77.9611 11.338 77.9455 11.4704 77.9299 11.5794H68.1465C68.1932 12.1245 68.3177 12.615 68.5201 13.0511C68.738 13.4871 69.0104 13.8687 69.3373 14.1957C69.6798 14.5071 70.0612 14.7485 70.4814 14.9198C70.9173 15.0911 71.3687 15.1768 71.8357 15.1768C72.1782 15.1768 72.5129 15.1379 72.8398 15.06C73.1822 14.9666 73.4935 14.842 73.7737 14.6862C74.0539 14.5149 74.303 14.3125 74.5209 14.0789C74.7388 13.8453 74.9101 13.5883 75.0346 13.308L77.2295 13.9387C76.8092 14.8575 76.1087 15.6128 75.128 16.2046C74.1629 16.7808 73.0343 17.0689 71.7423 17.0689ZM75.4549 9.80408C75.4082 9.29017 75.2759 8.81519 75.058 8.37914C74.8556 7.9431 74.591 7.57713 74.2641 7.28124C73.9372 6.96978 73.5558 6.7284 73.1199 6.5571C72.6841 6.38579 72.2249 6.30014 71.7423 6.30014C71.2598 6.30014 70.8006 6.38579 70.3647 6.5571C69.9444 6.7284 69.5708 6.96978 69.2439 7.28124C68.917 7.57713 68.6524 7.9431 68.45 8.37914C68.2477 8.81519 68.1231 9.29017 68.0764 9.80408H75.4549Z" fill="white"/>
<path d="M0.135132 40.1949V23.6096H7.35014C8.09732 23.6096 8.78224 23.7653 9.4049 24.0768C10.0431 24.3883 10.5879 24.8009 11.0394 25.3149C11.4908 25.8132 11.841 26.3894 12.0901 27.0435C12.3547 27.682 12.487 28.336 12.487 29.0057C12.487 29.5663 12.4092 30.1036 12.2535 30.6175C12.0979 31.1314 11.8799 31.6064 11.5998 32.0424C11.3196 32.4785 10.9771 32.86 10.5724 33.1871C10.1677 33.4985 9.72401 33.7321 9.24145 33.8878L13.1408 40.1949H10.1754L6.5796 34.4251H2.75028V40.1949H0.135132ZM2.75028 32.1125H7.32679C7.70038 32.1125 8.03506 32.0346 8.33082 31.8789C8.64215 31.7076 8.90678 31.4818 9.1247 31.2015C9.34263 30.9056 9.51386 30.5708 9.63839 30.197C9.76293 29.8233 9.82519 29.4261 9.82519 29.0057C9.82519 28.5852 9.74736 28.1881 9.59169 27.8143C9.4516 27.4406 9.25702 27.1136 9.00796 26.8332C8.77446 26.5529 8.49427 26.3349 8.16737 26.1792C7.85605 26.0079 7.52915 25.9222 7.18669 25.9222H2.75028V32.1125Z" fill="white"/>
<path d="M20.3905 40.4285C19.4254 40.4285 18.5537 40.2572 17.7753 39.9146C17.0126 39.572 16.3588 39.1126 15.814 38.5364C15.2692 37.9602 14.8489 37.2906 14.5531 36.5275C14.2573 35.7488 14.1095 34.939 14.1095 34.0981C14.1095 33.2571 14.2573 32.4551 14.5531 31.692C14.8489 30.9134 15.2692 30.236 15.814 29.6597C16.3744 29.0835 17.0359 28.6241 17.7987 28.2815C18.577 27.9389 19.4409 27.7676 20.3905 27.7676C21.34 27.7676 22.1962 27.9389 22.9589 28.2815C23.7373 28.6241 24.3988 29.0835 24.9437 29.6597C25.504 30.236 25.9321 30.9134 26.2279 31.692C26.5236 32.4551 26.6715 33.2571 26.6715 34.0981C26.6715 34.939 26.5236 35.7488 26.2279 36.5275C25.9321 37.2906 25.504 37.9602 24.9437 38.5364C24.3988 39.1126 23.7373 39.572 22.9589 39.9146C22.1962 40.2572 21.34 40.4285 20.3905 40.4285ZM16.748 34.1214C16.748 34.7132 16.8414 35.2583 17.0282 35.7566C17.215 36.2549 17.4718 36.691 17.7987 37.0647C18.1256 37.4229 18.507 37.711 18.9428 37.9291C19.3942 38.1315 19.8768 38.2327 20.3905 38.2327C20.9042 38.2327 21.379 38.1315 21.8148 37.9291C22.2662 37.711 22.6554 37.4151 22.9823 37.0414C23.3092 36.6676 23.566 36.2316 23.7528 35.7332C23.9396 35.2349 24.033 34.6899 24.033 34.0981C24.033 33.5219 23.9396 32.9846 23.7528 32.4863C23.566 31.9723 23.3092 31.5285 22.9823 31.1548C22.6554 30.781 22.2662 30.4929 21.8148 30.2905C21.379 30.0724 20.9042 29.9634 20.3905 29.9634C19.8924 29.9634 19.4176 30.0724 18.9662 30.2905C18.5303 30.5085 18.1489 30.8044 17.822 31.1781C17.4951 31.5519 17.2305 31.9957 17.0282 32.5096C16.8414 33.008 16.748 33.5452 16.748 34.1214Z" fill="white"/>
<path d="M34.4367 40.4285C33.4716 40.4285 32.5999 40.2572 31.8215 39.9146C31.0588 39.572 30.405 39.1126 29.8602 38.5364C29.3154 37.9602 28.8951 37.2906 28.5993 36.5275C28.3036 35.7488 28.1557 34.939 28.1557 34.0981C28.1557 33.2571 28.3036 32.4551 28.5993 31.692C28.8951 30.9134 29.3154 30.236 29.8602 29.6597C30.4206 29.0835 31.0821 28.6241 31.8449 28.2815C32.6232 27.9389 33.4871 27.7676 34.4367 27.7676C35.3862 27.7676 36.2424 27.9389 37.0051 28.2815C37.7835 28.6241 38.445 29.0835 38.9899 29.6597C39.5502 30.236 39.9783 30.9134 40.2741 31.692C40.5698 32.4551 40.7177 33.2571 40.7177 34.0981C40.7177 34.939 40.5698 35.7488 40.2741 36.5275C39.9783 37.2906 39.5502 37.9602 38.9899 38.5364C38.445 39.1126 37.7835 39.572 37.0051 39.9146C36.2424 40.2572 35.3862 40.4285 34.4367 40.4285ZM30.7942 34.1214C30.7942 34.7132 30.8876 35.2583 31.0744 35.7566C31.2612 36.2549 31.518 36.691 31.8449 37.0647C32.1718 37.4229 32.5532 37.711 32.989 37.9291C33.4404 38.1315 33.923 38.2327 34.4367 38.2327C34.9504 38.2327 35.4252 38.1315 35.861 37.9291C36.3124 37.711 36.7016 37.4151 37.0285 37.0414C37.3554 36.6676 37.6122 36.2316 37.799 35.7332C37.9858 35.2349 38.0792 34.6899 38.0792 34.0981C38.0792 33.5219 37.9858 32.9846 37.799 32.4863C37.6122 31.9723 37.3554 31.5285 37.0285 31.1548C36.7016 30.781 36.3124 30.4929 35.861 30.2905C35.4252 30.0724 34.9504 29.9634 34.4367 29.9634C33.9386 29.9634 33.4638 30.0724 33.0124 30.2905C32.5765 30.5085 32.1951 30.8044 31.8682 31.1781C31.5414 31.5519 31.2767 31.9957 31.0744 32.5096C30.8876 33.008 30.7942 33.5452 30.7942 34.1214Z" fill="white"/>
<path d="M61.6754 40.1949H59.1069V33.3506C59.1069 32.2137 58.9201 31.3806 58.5466 30.8511C58.173 30.3216 57.6281 30.0569 56.9121 30.0569C56.1805 30.0569 55.5111 30.3294 54.904 30.8744C54.3125 31.4039 53.8844 32.0969 53.6198 32.9535V40.1949H51.0513V33.3506C51.0513 32.1982 50.8646 31.365 50.491 30.8511C50.1174 30.3216 49.5803 30.0569 48.8798 30.0569C48.1482 30.0569 47.4789 30.3216 46.8718 30.8511C46.2647 31.3806 45.8288 32.0736 45.5642 32.9301V40.1949H42.9958V27.9779H45.3307V30.4306C45.8133 29.5741 46.4437 28.92 47.222 28.4684C48.0159 28.0012 48.9188 27.7676 49.9306 27.7676C50.9424 27.7676 51.7363 28.0324 52.3122 28.5618C52.9037 29.0913 53.2696 29.7532 53.4097 30.5474C53.9233 29.6442 54.5693 28.959 55.3477 28.4918C56.126 28.009 57.0133 27.7676 58.0095 27.7676C58.7256 27.7676 59.3171 27.9078 59.7841 28.1881C60.2666 28.4528 60.648 28.811 60.9282 29.2626C61.2084 29.7143 61.403 30.2437 61.5119 30.8511C61.6209 31.4429 61.6754 32.0736 61.6754 32.7432V40.1949Z" fill="white"/>
</g>
</svg>
