<svg width="19" height="20" viewBox="0 0 19 20" fill="none" xmlns="http://www.w3.org/2000/svg">
<g id="icons8-&#209;&#129;&#208;&#186;&#208;&#176;&#208;&#184;&#204;&#134;&#208;&#191; 1" clip-path="url(#clip0_7214_398)">
<path id="Vector" d="M5.42688 0C2.43883 0 0 2.52813 0 5.6375C0 6.62031 0.26125 7.53125 0.68875 8.3375C0.584844 8.90938 0.5225 9.49844 0.5225 10.1C0.5225 15.3078 4.5882 19.525 9.595 19.525C10.1175 19.525 10.6266 19.4766 11.1269 19.3875C11.8616 19.7766 12.6929 20 13.5731 20C16.5612 20 19 17.4734 19 14.3625C19 13.5156 18.8026 12.7219 18.4775 12C18.6007 11.3828 18.6794 10.7516 18.6794 10.1C18.6794 4.89531 14.6033 0.675 9.595 0.675C9.11555 0.675 8.64352 0.725 8.18188 0.8C7.37289 0.301562 6.43625 0 5.42688 0ZM5.42688 0.8C6.34273 0.8 7.19031 1.06719 7.90875 1.5375C7.98594 1.59063 8.07797 1.6125 8.17 1.6C8.63461 1.51719 9.10961 1.475 9.595 1.475C14.198 1.475 17.9194 5.33438 17.9194 10.1C17.9194 10.7359 17.857 11.3531 17.7294 11.95C17.7056 12.0422 17.7145 12.1391 17.7531 12.225C18.0648 12.8703 18.24 13.5891 18.24 14.3625C18.24 17.0359 16.1574 19.2 13.5731 19.2C12.773 19.2 12.019 18.9906 11.3644 18.625C11.2916 18.5859 11.2085 18.5719 11.1269 18.5875C10.6311 18.6828 10.116 18.725 9.595 18.725C4.99195 18.725 1.2825 14.8703 1.2825 10.1C1.2825 9.50625 1.33891 8.92344 1.44875 8.3625C1.46805 8.26406 1.45023 8.16094 1.40125 8.075C0.993047 7.35625 0.76 6.53125 0.76 5.6375C0.76 2.96719 2.84406 0.8 5.42688 0.8ZM9.53562 3.35C8.53516 3.35 7.63562 3.49219 6.86375 3.7875C6.86078 3.78906 6.85484 3.78594 6.85187 3.7875C6.07258 4.0875 5.43727 4.54375 4.99937 5.1375C4.55703 5.73438 4.3225 6.44844 4.3225 7.2125C4.3225 8.00313 4.54367 8.71406 4.97563 9.275C5.38828 9.80938 5.94047 10.2281 6.61438 10.525C7.25562 10.8078 8.0468 11.0453 8.96562 11.25C9.6232 11.3938 10.1561 11.5281 10.5331 11.65C10.8671 11.7578 11.1298 11.9187 11.3169 12.1C11.4683 12.2469 11.5306 12.3922 11.5306 12.6625C11.5306 12.9812 11.4074 13.1922 11.0437 13.45C10.6816 13.7078 10.1784 13.8625 9.51188 13.8625C9.02352 13.8625 8.64797 13.7812 8.4075 13.6625C8.13883 13.5312 7.93844 13.3719 7.81375 13.2C7.65789 12.9875 7.50797 12.7078 7.3625 12.3625C7.20813 11.9859 7.00773 11.6672 6.745 11.4375C6.46594 11.1938 6.1082 11.075 5.73562 11.075C5.29477 11.075 4.88211 11.2234 4.57188 11.525C4.26609 11.825 4.085 12.2406 4.085 12.675C4.085 13.3047 4.30914 13.9359 4.71438 14.5375C5.11367 15.1375 5.64805 15.6203 6.28188 15.975C7.17102 16.4656 8.27687 16.7 9.57125 16.7C10.6504 16.7 11.6137 16.5281 12.4331 16.175C13.257 15.8203 13.9175 15.3125 14.3687 14.65C14.817 13.9906 15.0441 13.2203 15.0456 12.4C15.0456 11.7234 14.9165 11.1188 14.6419 10.6125C14.3762 10.1234 14.0006 9.71406 13.5375 9.4C13.0937 9.1 12.5623 8.85156 11.9581 8.65C11.3748 8.45625 10.7202 8.27188 10.0106 8.1125C10.0047 8.11094 10.0047 8.11406 9.99875 8.1125C9.4525 7.98125 9.05172 7.87813 8.82312 7.8125C8.61383 7.75156 8.39117 7.67031 8.18188 7.5625C7.9993 7.46719 7.87461 7.35469 7.79 7.25C7.72617 7.16875 7.70687 7.11563 7.70687 6.9875C7.70687 6.79844 7.77516 6.65313 8.075 6.45C8.36891 6.24844 8.79492 6.1375 9.36938 6.1375C9.99727 6.1375 10.4144 6.25938 10.5925 6.4C10.8404 6.59375 11.0734 6.8875 11.2694 7.275C11.2738 7.27969 11.2768 7.28281 11.2812 7.2875C11.4802 7.64219 11.6627 7.90469 11.875 8.1C12.1392 8.34063 12.4895 8.4375 12.8725 8.4375C13.3148 8.4375 13.7305 8.26719 14.0363 7.9375C14.3316 7.62031 14.5112 7.21406 14.5112 6.7875C14.5112 6.37656 14.3955 5.95781 14.1906 5.5625C13.9798 5.15625 13.6562 4.7875 13.2406 4.45C12.8161 4.10469 12.2921 3.83281 11.685 3.6375C11.066 3.4375 10.3416 3.35 9.53562 3.35ZM9.53562 4.15C10.2852 4.15 10.9369 4.24219 11.4594 4.4125C11.9967 4.58594 12.4435 4.81563 12.7775 5.0875C13.1293 5.37344 13.3772 5.66563 13.5256 5.95C13.6815 6.25 13.7513 6.52969 13.7513 6.7875C13.7513 7.00625 13.6815 7.18125 13.5019 7.375C13.3327 7.55938 13.1382 7.6375 12.8725 7.6375C12.6112 7.6375 12.4598 7.57813 12.3737 7.5C12.2639 7.4 12.114 7.19531 11.9462 6.9C11.9418 6.89063 11.9388 6.88438 11.9344 6.875C11.6984 6.41719 11.4045 6.03594 11.0556 5.7625C10.6504 5.44219 10.0819 5.3375 9.36938 5.3375C8.69547 5.3375 8.11805 5.475 7.65937 5.7875C7.23187 6.07813 6.94688 6.50313 6.94688 6.9875C6.94688 7.27031 7.03891 7.54688 7.20813 7.7625C7.37437 7.96875 7.59109 8.14062 7.84937 8.275C8.09875 8.40469 8.36 8.5125 8.62125 8.5875C8.87359 8.65938 9.28477 8.76562 9.84437 8.9C10.5391 9.05469 11.1744 9.22813 11.7325 9.4125C12.2862 9.59844 12.7612 9.82344 13.1337 10.075C13.5019 10.325 13.7854 10.6375 13.9887 11.0125C14.1832 11.3719 14.2856 11.8297 14.2856 12.4C14.2856 13.0672 14.1105 13.6594 13.7513 14.1875C13.3965 14.7094 12.8666 15.1281 12.1481 15.4375C11.443 15.7422 10.5732 15.9 9.57125 15.9C8.36594 15.9 7.38328 15.6859 6.63812 15.275C6.10227 14.975 5.67328 14.5703 5.34375 14.075C5.3393 14.075 5.33633 14.075 5.33187 14.075C4.99492 13.5734 4.845 13.1062 4.845 12.675C4.845 12.4484 4.9207 12.2828 5.09438 12.1125C5.26211 11.95 5.44914 11.875 5.73562 11.875C5.95977 11.875 6.11859 11.9266 6.25812 12.05C6.39766 12.1719 6.54164 12.3797 6.66187 12.675C6.66633 12.6797 6.6693 12.6828 6.67375 12.6875C6.83703 13.0766 7.01664 13.4094 7.22 13.6875C7.43375 13.9812 7.72766 14.2125 8.08687 14.3875C8.47727 14.5797 8.95227 14.6625 9.51188 14.6625C10.2837 14.6625 10.9473 14.4953 11.4712 14.125C11.9745 13.7688 12.2906 13.2453 12.2906 12.6625C12.2906 12.2188 12.1259 11.8031 11.8275 11.5125C11.5395 11.2328 11.1803 11.0234 10.7587 10.8875C10.3446 10.7531 9.79094 10.6219 9.12 10.475C8.23383 10.2781 7.49016 10.0422 6.91125 9.7875C6.33383 9.53281 5.89297 9.18281 5.56938 8.7625C5.2532 8.35156 5.0825 7.85469 5.0825 7.2125C5.0825 6.61094 5.25023 6.0875 5.59312 5.625C5.59758 5.625 5.60055 5.625 5.605 5.625C5.94047 5.16875 6.43328 4.79844 7.11312 4.5375C7.78109 4.27969 8.59898 4.15 9.53562 4.15Z" fill="#020202"/>
</g>
<defs>
<clipPath id="clip0_7214_398">
<rect width="19" height="20" fill="white"/>
</clipPath>
</defs>
</svg>
